<?xml version="1.0" encoding="UTF-8"?><svg id="Layer_2" xmlns="http://www.w3.org/2000/svg" viewBox="0 0 816.69 307.5"><defs><style>.cls-1{fill:#faa200;}.cls-2{fill:#fff;}</style></defs><g id="Layer_1-2"><path class="cls-2" d="m86.34,86.84v28.78h95.94v-28.78c0-26.5-21.47-47.97-47.97-47.97s-47.97,21.47-47.97,47.97Zm-38.38,28.78v-28.78C47.97,39.17,86.64.5,134.31.5s86.34,38.67,86.34,86.34v28.78h9.59c21.17,0,38.38,17.21,38.38,38.38v115.12c0,21.17-17.21,38.38-38.38,38.38H38.38c-21.17,0-38.38-17.21-38.38-38.38v-115.12c0-21.17,17.21-38.38,38.38-38.38h9.59Z"/><path class="cls-2" d="m405.21,111.57v25.93h-120.21v-20.62l75.43-90.95h-73.86V0h115.7v20.62l-75.23,90.95h78.18Z"/><path class="cls-2" d="m516.18,108.04h-63.84l-12.18,29.46h-32.61L468.84,0h31.43l61.48,137.5h-33.39l-12.18-29.46Zm-10.02-24.16l-21.8-52.64-21.8,52.64h43.61Z"/><path class="cls-2" d="m695.31,49.89c0,30.64-22.98,49.7-59.71,49.7h-27.7v37.91h-31.82V0h59.52c36.73,0,59.71,19.05,59.71,49.89Zm-32.21,0c0-15.12-9.82-23.96-29.27-23.96h-25.93v47.73h25.93c19.45,0,29.27-8.84,29.27-23.77Z"/><path class="cls-2" d="m386.75,233.77h29.07v55.78c-15.12,11.39-35.95,17.48-55.59,17.48-43.21,0-75.04-29.66-75.04-71.11s31.82-71.11,75.63-71.11c24.16,0,44.2,8.25,57.55,23.77l-20.43,18.86c-10.02-10.61-21.61-15.52-35.55-15.52-26.71,0-44.98,17.88-44.98,44s18.27,44,44.59,44c8.64,0,16.7-1.57,24.75-5.89v-40.27Z"/><path class="cls-2" d="m535.82,275.22h-63.84l-12.18,29.46h-32.61l61.29-137.5h31.43l61.48,137.5h-33.39l-12.18-29.46Zm-10.02-24.16l-21.8-52.64-21.8,52.64h43.61Z"/><path class="cls-2" d="m617.33,193.11h-44v-25.93h119.82v25.93h-44v111.57h-31.82v-111.57Z"/><path class="cls-2" d="m816.69,279.15v25.53h-106.46v-137.5h103.91v25.53h-72.29v29.86h63.84v24.75h-63.84v31.82h74.84Z"/><path class="cls-1" d="m162.9,164.08c1.34-3.1.34-6.73-2.4-8.72s-6.48-1.81-9.04.41l-58.02,50.76c-2.27,1.99-3.08,5.19-2.02,8,1.07,2.81,3.78,4.71,6.8,4.71h25.27l-17.43,40.66c-1.34,3.1-.34,6.73,2.4,8.72,2.74,1.99,6.48,1.81,9.04-.41l58.02-50.76c2.27-1.99,3.08-5.19,2.02-8s-3.76-4.69-6.8-4.69h-25.27l17.43-40.68Z"/></g></svg>