<?xml version="1.0" encoding="UTF-8"?><svg id="Layer_2" xmlns="http://www.w3.org/2000/svg" viewBox="0 0 2097 607.91"><defs><style>.cls-1{fill:#faa200;}.cls-2,.cls-3{fill:#fff;}.cls-3{font-family:Montserrat-Bold, Montserrat;font-size:265.96px;font-weight:700;}.cls-4{letter-spacing:0em;}.cls-5{letter-spacing:-.02em;}</style></defs><g id="Layer_1-2"><text class="cls-3" transform="translate(649.41 517.81)"><tspan class="cls-4" x="0" y="0">Z</tspan><tspan x="179.25" y="0">apGa</tspan><tspan class="cls-5" x="896" y="0">t</tspan><tspan x="1007.17" y="0">e.It</tspan></text><path class="cls-2" d="m170.97,170.97v56.99h189.97v-56.99c0-52.48-42.51-94.99-94.99-94.99s-94.99,42.51-94.99,94.99Zm-75.99,56.99v-56.99C94.99,76.58,171.57,0,265.96,0s170.97,76.58,170.97,170.97v56.99h19c41.91,0,75.99,34.08,75.99,75.99v227.97c0,41.91-34.08,75.99-75.99,75.99H75.99c-41.91,0-75.99-34.08-75.99-75.99v-227.97c0-41.91,34.08-75.99,75.99-75.99h19Z"/><path class="cls-1" d="m328.08,319.21c2.94-6.83.75-14.81-5.29-19.2-6.03-4.39-14.26-3.99-19.9.9l-127.67,111.71c-4.99,4.39-6.78,11.42-4.44,17.6,2.34,6.18,8.33,10.37,14.96,10.37h55.61l-38.35,89.47c-2.94,6.83-.75,14.81,5.29,19.2,6.03,4.39,14.26,3.99,19.9-.9l127.67-111.71c4.99-4.39,6.78-11.42,4.44-17.6s-8.28-10.32-14.96-10.32h-55.61l38.35-89.52Z"/></g></svg>